<mxfile host="app.diagrams.net" modified="2022-12-19T06:44:45.497Z" agent="5.0 (Windows NT 10.0; Win64; x64) AppleWebKit/537.36 (KHTML, like Gecko) Chrome/100.0.4896.60 Safari/537.36" etag="WbiSPvwuRuJpdOPUkktn" version="20.7.4" type="github">
  <diagram name="Page-1" id="e7e014a7-5840-1c2e-5031-d8a46d1fe8dd">
    <mxGraphModel dx="2603" dy="756" grid="1" gridSize="10" guides="1" tooltips="1" connect="1" arrows="1" fold="1" page="1" pageScale="1" pageWidth="1169" pageHeight="826" background="none" math="0" shadow="0">
      <root>
        <mxCell id="0" />
        <mxCell id="1" parent="0" />
        <mxCell id="2" value="客户后台" style="swimlane;whiteSpace=wrap" parent="1" vertex="1">
          <mxGeometry x="164.5" y="128" width="285.5" height="682" as="geometry" />
        </mxCell>
        <mxCell id="5" value="" style="ellipse;shape=startState;fillColor=#000000;strokeColor=#ff0000;" parent="2" vertex="1">
          <mxGeometry x="100" y="52" width="30" height="30" as="geometry" />
        </mxCell>
        <mxCell id="0BRf8_mrDBuYlhS360qy-68" value="" style="endArrow=classic;html=1;rounded=0;fontSize=14;strokeColor=#f40b0b;entryX=0;entryY=0.7;entryDx=0;entryDy=0;entryPerimeter=0;" edge="1" parent="2" target="0BRf8_mrDBuYlhS360qy-69">
          <mxGeometry width="50" height="50" relative="1" as="geometry">
            <mxPoint x="135.5" y="64" as="sourcePoint" />
            <mxPoint x="435.5" y="64" as="targetPoint" />
          </mxGeometry>
        </mxCell>
        <mxCell id="0BRf8_mrDBuYlhS360qy-85" value="" style="ellipse;shape=startState;fillColor=#000000;strokeColor=#ff0000;" vertex="1" parent="2">
          <mxGeometry x="100" y="285" width="30" height="30" as="geometry" />
        </mxCell>
        <mxCell id="0BRf8_mrDBuYlhS360qy-96" value="通过访问令牌请求资源" style="text;html=1;align=center;verticalAlign=middle;resizable=0;points=[];autosize=1;strokeColor=#b85450;fillColor=#f8cecc;fontSize=14;fontStyle=1;fontColor=rgb(0, 0, 0);" vertex="1" parent="2">
          <mxGeometry x="35.5" y="615" width="160" height="30" as="geometry" />
        </mxCell>
        <mxCell id="3" value="授权服务器" style="swimlane;whiteSpace=wrap;fillColor=#f5f5f5;fontColor=#333333;strokeColor=#666666;" parent="1" vertex="1">
          <mxGeometry x="445" y="128" width="280" height="682" as="geometry" />
        </mxCell>
        <mxCell id="0BRf8_mrDBuYlhS360qy-69" value="注册商户信息" style="text;html=1;align=center;verticalAlign=middle;resizable=0;points=[];autosize=1;strokeColor=#b85450;fillColor=#f8cecc;fontSize=14;fontStyle=1" vertex="1" parent="3">
          <mxGeometry x="95.5" y="44" width="110" height="30" as="geometry" />
        </mxCell>
        <mxCell id="0BRf8_mrDBuYlhS360qy-84" value="" style="edgeStyle=orthogonalEdgeStyle;rounded=0;orthogonalLoop=1;jettySize=auto;html=1;strokeColor=#f40b0b;fontSize=14;" edge="1" parent="3" source="0BRf8_mrDBuYlhS360qy-80" target="0BRf8_mrDBuYlhS360qy-83">
          <mxGeometry relative="1" as="geometry" />
        </mxCell>
        <mxCell id="0BRf8_mrDBuYlhS360qy-80" value="&lt;span style=&quot;font-weight: 700;&quot;&gt;获取校验结果，保存相关映射关系&lt;/span&gt;" style="text;html=1;align=center;verticalAlign=middle;resizable=0;points=[];autosize=1;strokeColor=#b85450;fillColor=#f8cecc;fontSize=14;" vertex="1" parent="3">
          <mxGeometry x="35.5" y="132" width="230" height="30" as="geometry" />
        </mxCell>
        <mxCell id="0BRf8_mrDBuYlhS360qy-83" value="" style="shape=waypoint;sketch=0;size=6;pointerEvents=1;points=[];fillColor=#f8cecc;resizable=0;rotatable=0;perimeter=centerPerimeter;snapToPoint=1;fontSize=14;strokeColor=#b85450;fontColor=rgb(0, 0, 0);gradientColor=none;" vertex="1" parent="3">
          <mxGeometry x="130.5" y="237" width="40" height="40" as="geometry" />
        </mxCell>
        <mxCell id="0BRf8_mrDBuYlhS360qy-91" value="" style="edgeStyle=orthogonalEdgeStyle;rounded=0;orthogonalLoop=1;jettySize=auto;html=1;strokeColor=#f40b0b;fontSize=14;" edge="1" parent="3" source="0BRf8_mrDBuYlhS360qy-88" target="0BRf8_mrDBuYlhS360qy-90">
          <mxGeometry relative="1" as="geometry" />
        </mxCell>
        <mxCell id="0BRf8_mrDBuYlhS360qy-88" value="申请访问令牌access_token" style="text;html=1;align=center;verticalAlign=middle;resizable=0;points=[];autosize=1;strokeColor=#b85450;fillColor=#f8cecc;fontSize=14;fontStyle=1" vertex="1" parent="3">
          <mxGeometry x="50" y="285" width="200" height="30" as="geometry" />
        </mxCell>
        <mxCell id="0BRf8_mrDBuYlhS360qy-93" value="" style="edgeStyle=orthogonalEdgeStyle;rounded=0;orthogonalLoop=1;jettySize=auto;html=1;strokeColor=#f40b0b;fontSize=14;" edge="1" parent="3" source="0BRf8_mrDBuYlhS360qy-90" target="0BRf8_mrDBuYlhS360qy-92">
          <mxGeometry relative="1" as="geometry" />
        </mxCell>
        <mxCell id="0BRf8_mrDBuYlhS360qy-90" value="校验appId、secret等信息" style="text;html=1;align=center;verticalAlign=middle;resizable=0;points=[];autosize=1;strokeColor=#b85450;fillColor=#f8cecc;fontSize=14;fontStyle=1;fontColor=rgb(0, 0, 0);" vertex="1" parent="3">
          <mxGeometry x="55" y="395" width="190" height="30" as="geometry" />
        </mxCell>
        <mxCell id="0BRf8_mrDBuYlhS360qy-92" value="颁发访问令牌access_token" style="text;html=1;align=center;verticalAlign=middle;resizable=0;points=[];autosize=1;strokeColor=#b85450;fillColor=#f8cecc;fontSize=14;fontStyle=1;fontColor=rgb(0, 0, 0);" vertex="1" parent="3">
          <mxGeometry x="50" y="505" width="200" height="30" as="geometry" />
        </mxCell>
        <mxCell id="4" value="资源服务器" style="swimlane;whiteSpace=wrap" parent="1" vertex="1">
          <mxGeometry x="724.5" y="128" width="285.5" height="682" as="geometry" />
        </mxCell>
        <mxCell id="0BRf8_mrDBuYlhS360qy-78" value="" style="endArrow=classic;html=1;rounded=0;strokeColor=#FF0000;fontSize=14;entryX=0.995;entryY=0.483;entryDx=0;entryDy=0;entryPerimeter=0;" edge="1" parent="4" target="0BRf8_mrDBuYlhS360qy-80">
          <mxGeometry width="50" height="50" relative="1" as="geometry">
            <mxPoint x="385.5" y="146.5" as="sourcePoint" />
            <mxPoint x="-64.5" y="146.5" as="targetPoint" />
          </mxGeometry>
        </mxCell>
        <mxCell id="0BRf8_mrDBuYlhS360qy-98" value="鉴权" style="text;html=1;align=center;verticalAlign=middle;resizable=0;points=[];autosize=1;strokeColor=#b85450;fillColor=#f8cecc;fontSize=14;fontStyle=1;fontColor=rgb(0, 0, 0);" vertex="1" parent="4">
          <mxGeometry x="130.5" y="615" width="50" height="30" as="geometry" />
        </mxCell>
        <mxCell id="0BRf8_mrDBuYlhS360qy-41" value="基础平台（旧web等）" style="swimlane;whiteSpace=wrap" vertex="1" parent="1">
          <mxGeometry x="1004.5" y="128" width="280" height="682" as="geometry" />
        </mxCell>
        <mxCell id="0BRf8_mrDBuYlhS360qy-74" value="校验商户信息" style="text;html=1;align=center;verticalAlign=middle;resizable=0;points=[];autosize=1;strokeColor=#b85450;fillColor=#f8cecc;fontSize=14;fontStyle=1" vertex="1" parent="0BRf8_mrDBuYlhS360qy-41">
          <mxGeometry x="105.5" y="44" width="110" height="30" as="geometry" />
        </mxCell>
        <mxCell id="0BRf8_mrDBuYlhS360qy-81" value="获取商户最大权限范围" style="text;html=1;align=center;verticalAlign=middle;resizable=0;points=[];autosize=1;strokeColor=#b85450;fillColor=#f8cecc;fontSize=14;fontStyle=1" vertex="1" parent="0BRf8_mrDBuYlhS360qy-41">
          <mxGeometry x="80.5" y="132" width="160" height="30" as="geometry" />
        </mxCell>
        <mxCell id="0BRf8_mrDBuYlhS360qy-82" value="" style="endArrow=classic;html=1;rounded=0;strokeColor=#f40b0b;fontSize=14;exitX=0.491;exitY=1.033;exitDx=0;exitDy=0;exitPerimeter=0;entryX=0.5;entryY=-0.133;entryDx=0;entryDy=0;entryPerimeter=0;" edge="1" parent="0BRf8_mrDBuYlhS360qy-41" source="0BRf8_mrDBuYlhS360qy-74" target="0BRf8_mrDBuYlhS360qy-81">
          <mxGeometry width="50" height="50" relative="1" as="geometry">
            <mxPoint x="-4.5" y="322" as="sourcePoint" />
            <mxPoint x="45.5" y="272" as="targetPoint" />
          </mxGeometry>
        </mxCell>
        <mxCell id="0BRf8_mrDBuYlhS360qy-100" value="获取相关资源" style="text;html=1;align=center;verticalAlign=middle;resizable=0;points=[];autosize=1;strokeColor=#b85450;fillColor=#f8cecc;fontSize=14;fontStyle=1;fontColor=rgb(0, 0, 0);" vertex="1" parent="0BRf8_mrDBuYlhS360qy-41">
          <mxGeometry x="115.5" y="615" width="110" height="30" as="geometry" />
        </mxCell>
        <mxCell id="0BRf8_mrDBuYlhS360qy-52" style="edgeStyle=orthogonalEdgeStyle;rounded=0;orthogonalLoop=1;jettySize=auto;html=1;fontSize=18;" edge="1" parent="1" source="0BRf8_mrDBuYlhS360qy-49">
          <mxGeometry relative="1" as="geometry">
            <mxPoint x="250" y="432" as="targetPoint" />
          </mxGeometry>
        </mxCell>
        <mxCell id="0BRf8_mrDBuYlhS360qy-49" value="Actor" style="shape=umlActor;verticalLabelPosition=bottom;verticalAlign=top;html=1;outlineConnect=0;fontSize=18;" vertex="1" parent="1">
          <mxGeometry x="-90" y="402" width="30" height="60" as="geometry" />
        </mxCell>
        <mxCell id="0BRf8_mrDBuYlhS360qy-53" value="&lt;b style=&quot;border-color: var(--border-color);&quot;&gt;无需关心客户后台和他们平台用户的交互&lt;br&gt;&lt;/b&gt;" style="ellipse;shape=cloud;whiteSpace=wrap;html=1;fontSize=14;" vertex="1" parent="1">
          <mxGeometry x="-40" y="290" width="140" height="90" as="geometry" />
        </mxCell>
        <mxCell id="0BRf8_mrDBuYlhS360qy-56" value="" style="endArrow=classic;html=1;rounded=0;fontSize=14;entryX=0.479;entryY=0.967;entryDx=0;entryDy=0;entryPerimeter=0;" edge="1" parent="1" target="0BRf8_mrDBuYlhS360qy-53">
          <mxGeometry width="50" height="50" relative="1" as="geometry">
            <mxPoint x="10" y="432" as="sourcePoint" />
            <mxPoint x="60" y="402" as="targetPoint" />
          </mxGeometry>
        </mxCell>
        <mxCell id="0BRf8_mrDBuYlhS360qy-73" value="" style="endArrow=classic;html=1;rounded=0;strokeColor=#FF0000;fontSize=14;entryX=-0.005;entryY=0.667;entryDx=0;entryDy=0;entryPerimeter=0;exitX=1.014;exitY=0.6;exitDx=0;exitDy=0;exitPerimeter=0;" edge="1" parent="1" source="0BRf8_mrDBuYlhS360qy-69" target="0BRf8_mrDBuYlhS360qy-74">
          <mxGeometry width="50" height="50" relative="1" as="geometry">
            <mxPoint x="584.5" y="302" as="sourcePoint" />
            <mxPoint x="1160" y="302" as="targetPoint" />
          </mxGeometry>
        </mxCell>
        <mxCell id="0BRf8_mrDBuYlhS360qy-87" style="edgeStyle=orthogonalEdgeStyle;rounded=0;orthogonalLoop=1;jettySize=auto;html=1;exitX=1;exitY=0.5;exitDx=0;exitDy=0;strokeColor=#f40b0b;fontSize=14;" edge="1" parent="1" source="0BRf8_mrDBuYlhS360qy-85">
          <mxGeometry relative="1" as="geometry">
            <mxPoint x="500" y="428" as="targetPoint" />
          </mxGeometry>
        </mxCell>
        <mxCell id="0BRf8_mrDBuYlhS360qy-97" value="" style="edgeStyle=orthogonalEdgeStyle;rounded=0;orthogonalLoop=1;jettySize=auto;html=1;strokeColor=#f40b0b;fontSize=14;" edge="1" parent="1" source="0BRf8_mrDBuYlhS360qy-94">
          <mxGeometry relative="1" as="geometry">
            <mxPoint x="280" y="740" as="targetPoint" />
          </mxGeometry>
        </mxCell>
        <mxCell id="0BRf8_mrDBuYlhS360qy-94" value="获取到访问令牌" style="text;html=1;align=center;verticalAlign=middle;resizable=0;points=[];autosize=1;strokeColor=#b85450;fillColor=#f8cecc;fontSize=14;fontStyle=1;fontColor=rgb(0, 0, 0);" vertex="1" parent="1">
          <mxGeometry x="220" y="633" width="120" height="30" as="geometry" />
        </mxCell>
        <mxCell id="0BRf8_mrDBuYlhS360qy-95" value="" style="edgeStyle=orthogonalEdgeStyle;rounded=0;orthogonalLoop=1;jettySize=auto;html=1;strokeColor=#f40b0b;fontSize=14;" edge="1" parent="1" source="0BRf8_mrDBuYlhS360qy-92">
          <mxGeometry relative="1" as="geometry">
            <mxPoint x="340" y="648" as="targetPoint" />
          </mxGeometry>
        </mxCell>
        <mxCell id="0BRf8_mrDBuYlhS360qy-99" value="" style="edgeStyle=orthogonalEdgeStyle;rounded=0;orthogonalLoop=1;jettySize=auto;html=1;strokeColor=#f40b0b;fontSize=14;" edge="1" parent="1">
          <mxGeometry relative="1" as="geometry">
            <mxPoint x="360" y="760" as="sourcePoint" />
            <mxPoint x="860" y="760" as="targetPoint" />
          </mxGeometry>
        </mxCell>
        <mxCell id="0BRf8_mrDBuYlhS360qy-101" value="" style="edgeStyle=orthogonalEdgeStyle;rounded=0;orthogonalLoop=1;jettySize=auto;html=1;strokeColor=#f40b0b;fontSize=14;" edge="1" parent="1" source="0BRf8_mrDBuYlhS360qy-98" target="0BRf8_mrDBuYlhS360qy-100">
          <mxGeometry relative="1" as="geometry" />
        </mxCell>
      </root>
    </mxGraphModel>
  </diagram>
</mxfile>
